# Blender v3.0.0 OBJ File: 'firsttry.blend'
# www.blender.org
mtllib woodLog2.mtl
o log2_Mesh.001
v -0.697536 0.202990 1.768591
v -0.680248 0.202336 1.769768
v -0.665923 0.201367 1.779284
v -0.658564 0.198863 1.793514
v -0.724216 0.201979 1.807185
v -0.722921 0.202783 1.790194
v -0.713155 0.203153 1.776067
v -0.698032 0.147747 1.767379
v -0.682384 0.147084 1.769849
v -0.666195 0.146224 1.775926
v -0.661292 0.145122 1.794585
v -0.727753 0.146977 1.803237
v -0.725276 0.147824 1.784594
v -0.714383 0.148083 1.771910
v -0.698832 0.092682 1.762805
v -0.681974 0.091908 1.766688
v -0.669399 0.090892 1.778343
v -0.664351 0.093496 1.794826
v -0.731435 0.092108 1.796738
v -0.727388 0.092798 1.780154
v -0.715455 0.093008 1.767734
vt 0.560656 0.613817
vt 0.468260 0.612953
vt 0.469616 0.309329
vt 0.557375 0.310240
vt 0.375623 0.610975
vt 0.374469 0.307989
vt 0.978022 0.613904
vt 0.890836 0.599936
vt 0.891778 0.304495
vt 0.997979 0.311469
vt 0.891094 0.617809
vt 0.796614 0.615392
vt 0.789977 0.311983
vt 0.892925 0.314514
vt 0.702079 0.613490
vt 0.700074 0.310381
vt 0.653258 0.614358
vt 0.650257 0.311132
vt 0.464767 0.005731
vt 0.556455 0.007133
vt 0.372185 0.003208
vt 0.897601 0.020683
vt 0.992381 0.007105
vt 0.788487 0.008743
vt 0.881327 0.010899
vt 0.741118 0.312897
vt 0.648549 0.008215
vt 0.741389 0.009695
vt 0.492079 0.643444
vt 0.584101 0.626608
vt 0.549467 0.987144
vt 0.466420 0.955697
vt 0.406121 0.884158
vt 0.389450 0.792123
vt 0.420869 0.704051
vt 0.037839 0.701479
vt 0.111456 0.642719
vt 0.207691 0.631235
vt 0.158472 0.989958
vt 0.073225 0.954612
vt 0.016361 0.881092
vt 0.003287 0.788621
vt 0.013677 0.610005
vt 0.012373 0.306611
vt 0.373739 0.314601
vt 0.375773 0.609807
vt 0.010678 0.002652
vt 0.371824 0.030853
vn -0.1834 0.0126 -0.9830
vn 0.2995 0.0162 -0.9540
vn 0.2674 0.0049 -0.9636
vn -0.0599 0.0598 -0.9964
vn 0.7529 0.0060 -0.6581
vn 0.7432 -0.0315 -0.6683
vn 0.8830 -0.0541 -0.4662
vn 0.9610 -0.0308 -0.2748
vn -0.9949 0.0549 -0.0850
vn -0.9408 0.0612 -0.3333
vn -0.9105 0.0740 -0.4068
vn -0.9882 0.0652 -0.1386
vn -0.6389 0.0498 -0.7677
vn -0.5392 0.0826 -0.8381
vn 0.4693 0.0623 -0.8809
vn -0.0232 0.0808 -0.9965
vn 0.8248 -0.0204 -0.5650
vn 0.9586 -0.0658 -0.2772
vn -0.8775 0.0865 -0.4716
vn -0.9682 0.0925 -0.2324
vn -0.5188 0.0816 -0.8510
vn 0.0553 0.9967 0.0586
vn 0.0581 0.9970 0.0516
vn 0.0251 0.9939 0.1072
vn -0.0732 0.9751 0.2094
vn 0.0198 0.9917 0.1270
vn 0.0493 0.9954 0.0816
vn 0.0344 0.9982 0.0499
vn -0.0403 -0.9976 0.0565
vn -0.2937 -0.9262 0.2363
vn -0.0607 -0.9951 0.0782
vn 0.0196 -0.9991 -0.0368
vn 0.0046 -0.9998 -0.0207
vn -0.0344 -0.9982 -0.0499
vn 0.1265 -0.0791 0.9888
vn 0.2043 0.0091 0.9789
vn 0.0284 0.0030 0.9996
vn 0.1247 -0.1250 0.9843
usemtl Material_#2
s 1
f 1/1/1 2/2/2 9/3/3
f 9/3/3 8/4/4 1/1/1
f 2/2/2 3/5/5 10/6/6
f 10/6/6 9/3/3 2/2/2
f 3/7/5 4/8/7 11/9/8
f 11/9/8 10/10/6 3/7/5
f 5/11/9 6/12/10 13/13/11
f 13/13/11 12/14/12 5/11/9
f 6/12/10 7/15/13 14/16/14
f 14/16/14 13/13/11 6/12/10
f 7/17/13 1/1/1 8/4/4
f 8/4/4 14/18/14 7/17/13
f 8/4/4 9/3/3 16/19/15
f 16/19/15 15/20/16 8/4/4
f 9/3/3 10/6/6 17/21/17
f 17/21/17 16/19/15 9/3/3
f 10/10/6 11/9/8 18/22/18
f 18/22/18 17/23/17 10/10/6
f 12/14/12 13/13/11 20/24/19
f 20/24/19 19/25/20 12/14/12
f 13/26/11 14/18/14 21/27/21
f 21/27/21 20/28/19 13/26/11
f 14/18/14 8/4/4 15/20/16
f 15/20/16 21/27/21 14/18/14
f 6/29/22 5/30/23 4/31/24
f 4/31/24 3/32/25 2/33/26
f 4/31/24 2/33/26 1/34/27
f 6/29/22 4/31/24 1/34/27
f 7/35/28 6/29/22 1/34/27
f 16/36/29 17/37/30 18/38/31
f 18/38/31 19/39/32 20/40/33
f 16/36/29 18/38/31 20/40/33
f 16/36/29 20/40/33 21/41/34
f 15/42/34 16/36/29 21/41/34
f 5/43/35 12/44/35 11/45/35
f 11/45/36 4/46/36 5/43/36
f 19/47/37 18/48/37 11/45/37
f 11/45/38 12/44/38 19/47/38
